<svg xmlns="http://www.w3.org/2000/svg" xmlns:xlink="http://www.w3.org/1999/xlink" width="500" zoomAndPan="magnify" viewBox="0 0 375 374.999991" height="500" preserveAspectRatio="xMidYMid meet" version="1.0"><defs><g/><clipPath id="476766f4e7"><path d="M 288.601562 90.46875 L 328.351562 90.46875 L 328.351562 130.21875 L 288.601562 130.21875 Z M 288.601562 90.46875 " clip-rule="nonzero"/></clipPath><clipPath id="161d9a9cb3"><path d="M 3 0.640625 L 63 0.640625 L 63 77 L 3 77 Z M 3 0.640625 " clip-rule="nonzero"/></clipPath><clipPath id="5f20a80af8"><rect x="0" width="66" y="0" height="100"/></clipPath><clipPath id="ef746be5bc"><rect x="0" width="147" y="0" height="100"/></clipPath><clipPath id="d81b43bc47"><rect x="0" width="100" y="0" height="100"/></clipPath><clipPath id="8e8055ae8b"><rect x="0" width="269" y="0" height="100"/></clipPath><clipPath id="e0cfb2b145"><path d="M 0.28125 1 L 8 1 L 8 12 L 0.28125 12 Z M 0.28125 1 " clip-rule="nonzero"/></clipPath><clipPath id="1dad8f35ea"><path d="M 33 0.441406 L 41 0.441406 L 41 11 L 33 11 Z M 33 0.441406 " clip-rule="nonzero"/></clipPath><clipPath id="9c7f999580"><path d="M 123 0.441406 L 131 0.441406 L 131 12 L 123 12 Z M 123 0.441406 " clip-rule="nonzero"/></clipPath><clipPath id="34ee757c78"><path d="M 150 0.441406 L 158 0.441406 L 158 12 L 150 12 Z M 150 0.441406 " clip-rule="nonzero"/></clipPath><clipPath id="f21305cb3a"><path d="M 174 0.441406 L 185 0.441406 L 185 12 L 174 12 Z M 174 0.441406 " clip-rule="nonzero"/></clipPath><clipPath id="6d2bc03a70"><path d="M 187 0.441406 L 196 0.441406 L 196 12 L 187 12 Z M 187 0.441406 " clip-rule="nonzero"/></clipPath><clipPath id="481c5b5450"><rect x="0" width="199" y="0" height="16"/></clipPath></defs><rect x="-37.5" width="450" fill="#ffffff" y="-37.499999" height="449.999989" fill-opacity="1"/><rect x="-37.5" width="450" fill="#ffffff" y="-37.499999" height="449.999989" fill-opacity="1"/><g clip-path="url(#476766f4e7)"><path fill="#0d1117" d="M 308.984375 90.964844 L 312.949219 103.515625 C 313.304688 104.636719 314.183594 105.515625 315.304688 105.871094 L 327.855469 109.835938 C 328.351562 109.992188 328.351562 110.695312 327.855469 110.851562 L 315.304688 114.8125 C 314.183594 115.167969 313.304688 116.046875 312.949219 117.171875 L 308.984375 129.71875 C 308.828125 130.21875 308.125 130.21875 307.96875 129.71875 L 304.007812 117.171875 C 303.652344 116.046875 302.773438 115.167969 301.648438 114.8125 L 289.097656 110.851562 C 288.601562 110.695312 288.601562 109.992188 289.097656 109.835938 L 301.648438 105.871094 C 302.773438 105.515625 303.652344 104.636719 304.007812 103.515625 L 307.96875 90.964844 C 308.125 90.46875 308.828125 90.46875 308.984375 90.964844 " fill-opacity="1" fill-rule="nonzero"/></g><g transform="matrix(1, 0, 0, 1, 273, 158)"><g clip-path="url(#5f20a80af8)"><g clip-path="url(#161d9a9cb3)"><g fill="#000000" fill-opacity="1"><g transform="translate(0.912643, 75.151434)"><g><path d="M 4.96875 -51.65625 C 4.96875 -55.226562 5.695312 -58.40625 7.15625 -61.1875 C 8.613281 -63.976562 10.582031 -66.347656 13.0625 -68.296875 C 15.550781 -70.253906 18.398438 -71.742188 21.609375 -72.765625 C 24.816406 -73.796875 28.175781 -74.3125 31.6875 -74.3125 C 34.9375 -74.3125 37.96875 -74.046875 40.78125 -73.515625 C 43.59375 -72.984375 46.070312 -72.335938 48.21875 -71.578125 C 50.375 -70.816406 52.128906 -70.019531 53.484375 -69.1875 C 54.847656 -68.363281 55.628906 -67.617188 55.828125 -66.953125 C 56.160156 -66.023438 56.34375 -64.847656 56.375 -63.421875 C 56.40625 -62.003906 56.421875 -60.4375 56.421875 -58.71875 C 56.421875 -56.132812 55.492188 -54.84375 53.640625 -54.84375 C 52.585938 -54.84375 51.796875 -55.15625 51.265625 -55.78125 C 50.734375 -56.40625 50.234375 -57.179688 49.765625 -58.109375 C 49.304688 -59.035156 48.757812 -60.0625 48.125 -61.1875 C 47.5 -62.320312 46.554688 -63.351562 45.296875 -64.28125 C 44.035156 -65.207031 42.347656 -65.984375 40.234375 -66.609375 C 38.117188 -67.234375 35.335938 -67.546875 31.890625 -67.546875 C 29.765625 -67.546875 27.925781 -67.234375 26.375 -66.609375 C 24.820312 -65.984375 23.515625 -65.140625 22.453125 -64.078125 C 21.390625 -63.015625 20.59375 -61.820312 20.0625 -60.5 C 19.53125 -59.175781 19.265625 -57.816406 19.265625 -56.421875 C 19.265625 -54.035156 19.878906 -52.128906 21.109375 -50.703125 C 22.335938 -49.285156 23.941406 -48.128906 25.921875 -47.234375 C 27.910156 -46.335938 30.195312 -45.625 32.78125 -45.09375 C 35.363281 -44.570312 37.976562 -44.03125 40.625 -43.46875 C 43.28125 -42.90625 45.898438 -42.222656 48.484375 -41.421875 C 51.066406 -40.628906 53.347656 -39.488281 55.328125 -38 C 57.316406 -36.507812 58.921875 -34.585938 60.140625 -32.234375 C 61.367188 -29.878906 61.984375 -26.914062 61.984375 -23.34375 C 61.984375 -19.769531 61.238281 -16.457031 59.75 -13.40625 C 58.257812 -10.363281 56.171875 -7.734375 53.484375 -5.515625 C 50.804688 -3.296875 47.597656 -1.554688 43.859375 -0.296875 C 40.117188 0.960938 35.992188 1.59375 31.484375 1.59375 C 27.378906 1.59375 23.554688 1.078125 20.015625 0.046875 C 16.472656 -0.972656 13.375 -2.328125 10.71875 -4.015625 C 8.070312 -5.710938 5.988281 -7.617188 4.46875 -9.734375 C 2.945312 -11.859375 2.1875 -14.007812 2.1875 -16.1875 C 2.1875 -17.3125 2.550781 -18.351562 3.28125 -19.3125 C 4.007812 -20.28125 5.003906 -20.765625 6.265625 -20.765625 C 7.585938 -20.765625 8.660156 -20.382812 9.484375 -19.625 C 10.316406 -18.863281 11.078125 -17.898438 11.765625 -16.734375 C 12.460938 -15.578125 13.207031 -14.316406 14 -12.953125 C 14.800781 -11.597656 15.894531 -10.34375 17.28125 -9.1875 C 18.675781 -8.03125 20.445312 -7.070312 22.59375 -6.3125 C 24.75 -5.550781 27.550781 -5.171875 31 -5.171875 C 33.644531 -5.171875 36.039062 -5.5 38.1875 -6.15625 C 40.34375 -6.820312 42.164062 -7.75 43.65625 -8.9375 C 45.144531 -10.132812 46.285156 -11.539062 47.078125 -13.15625 C 47.878906 -14.78125 48.28125 -16.554688 48.28125 -18.484375 C 48.28125 -20.796875 47.664062 -22.664062 46.4375 -24.09375 C 45.21875 -25.519531 43.582031 -26.695312 41.53125 -27.625 C 39.476562 -28.550781 37.160156 -29.3125 34.578125 -29.90625 C 31.992188 -30.5 29.34375 -31.109375 26.625 -31.734375 C 23.90625 -32.367188 21.253906 -33.128906 18.671875 -34.015625 C 16.085938 -34.910156 13.769531 -36.101562 11.71875 -37.59375 C 9.664062 -39.09375 8.023438 -40.96875 6.796875 -43.21875 C 5.578125 -45.46875 4.96875 -48.28125 4.96875 -51.65625 Z M 4.96875 -51.65625 "/></g></g></g></g></g></g><g transform="matrix(1, 0, 0, 1, 133, 152)"><g clip-path="url(#ef746be5bc)"><g fill="#000000" fill-opacity="1"><g transform="translate(0.631202, 75.408587)"><g><path d="M 34.96875 -27.015625 C 32.125 -26.953125 29.539062 -26.539062 27.21875 -25.78125 C 24.90625 -25.019531 22.921875 -24.023438 21.265625 -22.796875 C 19.609375 -21.578125 18.332031 -20.1875 17.4375 -18.625 C 16.539062 -17.070312 16.09375 -15.46875 16.09375 -13.8125 C 16.09375 -12.6875 16.304688 -11.5625 16.734375 -10.4375 C 17.171875 -9.3125 17.785156 -8.316406 18.578125 -7.453125 C 19.367188 -6.585938 20.3125 -5.890625 21.40625 -5.359375 C 22.5 -4.828125 23.707031 -4.5625 25.03125 -4.5625 C 26.820312 -4.5625 28.34375 -4.972656 29.59375 -5.796875 C 30.851562 -6.628906 31.878906 -7.625 32.671875 -8.78125 C 33.472656 -9.945312 34.054688 -11.140625 34.421875 -12.359375 C 34.785156 -13.585938 34.96875 -14.632812 34.96875 -15.5 Z M 5.765625 -40.734375 C 5.765625 -41.921875 6.3125 -42.992188 7.40625 -43.953125 C 8.5 -44.921875 9.9375 -45.734375 11.71875 -46.390625 C 13.507812 -47.054688 15.515625 -47.570312 17.734375 -47.9375 C 19.953125 -48.300781 22.15625 -48.484375 24.34375 -48.484375 C 28.78125 -48.484375 32.488281 -48 35.46875 -47.03125 C 38.445312 -46.070312 40.863281 -44.78125 42.71875 -43.15625 C 44.570312 -41.539062 45.894531 -39.707031 46.6875 -37.65625 C 47.488281 -35.601562 47.890625 -33.484375 47.890625 -31.296875 L 47.890625 -9.4375 C 47.890625 -8.25 48.148438 -7.390625 48.671875 -6.859375 C 49.203125 -6.328125 49.765625 -5.910156 50.359375 -5.609375 C 50.960938 -5.316406 51.523438 -5.003906 52.046875 -4.671875 C 52.578125 -4.335938 52.84375 -3.773438 52.84375 -2.984375 C 52.84375 -2.117188 52.59375 -1.40625 52.09375 -0.84375 C 51.601562 -0.28125 50.398438 0 48.484375 0 L 40.140625 0 C 38.609375 0 37.53125 -0.328125 36.90625 -0.984375 C 36.28125 -1.648438 35.96875 -2.742188 35.96875 -4.265625 L 35.96875 -5.359375 L 35.5625 -5.359375 C 34.039062 -3.179688 31.835938 -1.578125 28.953125 -0.546875 C 26.078125 0.484375 23.050781 1 19.875 1 C 17.019531 1 14.515625 0.601562 12.359375 -0.1875 C 10.210938 -0.988281 8.394531 -2.066406 6.90625 -3.421875 C 5.414062 -4.785156 4.289062 -6.359375 3.53125 -8.140625 C 2.769531 -9.929688 2.390625 -11.785156 2.390625 -13.703125 C 2.390625 -17.015625 3.394531 -19.863281 5.40625 -22.25 C 7.425781 -24.632812 10.007812 -26.570312 13.15625 -28.0625 C 16.300781 -29.550781 19.796875 -30.644531 23.640625 -31.34375 C 27.484375 -32.039062 31.257812 -32.390625 34.96875 -32.390625 C 34.96875 -35.367188 34.125 -37.800781 32.4375 -39.6875 C 30.75 -41.570312 28.28125 -42.515625 25.03125 -42.515625 C 23.039062 -42.515625 21.453125 -42.21875 20.265625 -41.625 C 19.078125 -41.03125 18 -40.367188 17.03125 -39.640625 C 16.070312 -38.910156 15.078125 -38.242188 14.046875 -37.640625 C 13.023438 -37.046875 11.722656 -36.75 10.140625 -36.75 C 8.804688 -36.75 7.742188 -37.097656 6.953125 -37.796875 C 6.160156 -38.492188 5.765625 -39.472656 5.765625 -40.734375 Z M 5.765625 -40.734375 "/></g></g></g><g fill="#000000" fill-opacity="1"><g transform="translate(50.301089, 75.408587)"><g><path d="M 19.875 -47.484375 C 20.332031 -47.484375 20.910156 -47.347656 21.609375 -47.078125 C 22.304688 -46.816406 22.65625 -46.222656 22.65625 -45.296875 C 22.65625 -44.503906 22.390625 -43.925781 21.859375 -43.5625 C 21.328125 -43.195312 20.757812 -42.847656 20.15625 -42.515625 C 19.5625 -42.179688 19 -41.800781 18.46875 -41.375 C 17.945312 -40.945312 17.6875 -40.300781 17.6875 -39.4375 C 17.6875 -37.582031 18.066406 -35.28125 18.828125 -32.53125 C 19.585938 -29.78125 20.546875 -26.929688 21.703125 -23.984375 C 22.859375 -21.046875 24.082031 -18.203125 25.375 -15.453125 C 26.664062 -12.703125 27.878906 -10.398438 29.015625 -8.546875 C 30.398438 -10.734375 31.703125 -13.164062 32.921875 -15.84375 C 34.148438 -18.53125 35.242188 -21.226562 36.203125 -23.9375 C 37.171875 -26.65625 37.9375 -29.238281 38.5 -31.6875 C 39.0625 -34.132812 39.34375 -36.253906 39.34375 -38.046875 C 39.34375 -39.242188 39.078125 -40.125 38.546875 -40.6875 C 38.015625 -41.25 37.453125 -41.726562 36.859375 -42.125 C 36.265625 -42.519531 35.703125 -42.929688 35.171875 -43.359375 C 34.640625 -43.796875 34.375 -44.441406 34.375 -45.296875 C 34.375 -46.222656 34.703125 -46.816406 35.359375 -47.078125 C 36.023438 -47.347656 36.691406 -47.484375 37.359375 -47.484375 L 48.578125 -47.484375 C 48.972656 -47.484375 49.421875 -47.316406 49.921875 -46.984375 C 50.421875 -46.660156 50.671875 -46.066406 50.671875 -45.203125 C 50.671875 -44.609375 50.550781 -44.109375 50.3125 -43.703125 C 50.082031 -43.304688 49.800781 -42.875 49.46875 -42.40625 C 49.132812 -41.945312 48.769531 -41.351562 48.375 -40.625 C 47.976562 -39.894531 47.613281 -38.867188 47.28125 -37.546875 C 46.03125 -32.847656 44.640625 -28.445312 43.109375 -24.34375 C 41.585938 -20.238281 40.097656 -16.59375 38.640625 -13.40625 C 37.179688 -10.226562 35.835938 -7.546875 34.609375 -5.359375 C 33.390625 -3.179688 32.453125 -1.660156 31.796875 -0.796875 C 31.523438 -0.398438 31.273438 -0.0859375 31.046875 0.140625 C 30.816406 0.378906 30.519531 0.5625 30.15625 0.6875 C 29.789062 0.820312 29.289062 0.90625 28.65625 0.9375 C 28.03125 0.976562 27.15625 1 26.03125 1 C 23.644531 1 21.890625 0.550781 20.765625 -0.34375 C 19.640625 -1.238281 18.675781 -2.316406 17.875 -3.578125 C 15.957031 -6.421875 14.269531 -9.398438 12.8125 -12.515625 C 11.351562 -15.628906 10.0625 -18.757812 8.9375 -21.90625 C 7.8125 -25.050781 6.816406 -28.160156 5.953125 -31.234375 C 5.097656 -34.316406 4.375 -37.21875 3.78125 -39.9375 C 3.644531 -40.59375 3.359375 -41.101562 2.921875 -41.46875 C 2.492188 -41.832031 2.046875 -42.179688 1.578125 -42.515625 C 1.117188 -42.847656 0.707031 -43.226562 0.34375 -43.65625 C -0.0195312 -44.09375 -0.203125 -44.707031 -0.203125 -45.5 C -0.203125 -46.820312 0.820312 -47.484375 2.875 -47.484375 Z M 19.875 -47.484375 "/></g></g></g><g fill="#000000" fill-opacity="1"><g transform="translate(95.003939, 75.408587)"><g><path d="M 29.703125 -43.109375 C 27.585938 -43.109375 25.703125 -42.644531 24.046875 -41.71875 C 22.390625 -40.789062 20.960938 -39.5 19.765625 -37.84375 C 18.578125 -36.1875 17.664062 -34.195312 17.03125 -31.875 C 16.40625 -29.5625 16.09375 -27.015625 16.09375 -24.234375 L 16.09375 -23.640625 C 18.28125 -23.835938 20.597656 -24.203125 23.046875 -24.734375 C 25.492188 -25.265625 27.742188 -25.992188 29.796875 -26.921875 C 31.847656 -27.847656 33.550781 -29.054688 34.90625 -30.546875 C 36.269531 -32.035156 36.953125 -33.875 36.953125 -36.0625 C 36.953125 -38.113281 36.375 -39.800781 35.21875 -41.125 C 34.0625 -42.445312 32.222656 -43.109375 29.703125 -43.109375 Z M 2.390625 -22.546875 C 2.390625 -26.128906 2.953125 -29.492188 4.078125 -32.640625 C 5.203125 -35.785156 6.921875 -38.53125 9.234375 -40.875 C 11.554688 -43.226562 14.488281 -45.082031 18.03125 -46.4375 C 21.570312 -47.800781 25.757812 -48.484375 30.59375 -48.484375 C 32.71875 -48.484375 34.90625 -48.234375 37.15625 -47.734375 C 39.40625 -47.234375 41.472656 -46.4375 43.359375 -45.34375 C 45.242188 -44.257812 46.800781 -42.835938 48.03125 -41.078125 C 49.257812 -39.328125 49.875 -37.222656 49.875 -34.765625 C 49.875 -31.648438 48.828125 -29.082031 46.734375 -27.0625 C 44.648438 -25.050781 41.984375 -23.429688 38.734375 -22.203125 C 35.492188 -20.972656 31.9375 -20.0625 28.0625 -19.46875 C 24.1875 -18.875 20.460938 -18.476562 16.890625 -18.28125 C 17.222656 -16.289062 17.832031 -14.535156 18.71875 -13.015625 C 19.613281 -11.492188 20.707031 -10.21875 22 -9.1875 C 23.289062 -8.164062 24.679688 -7.40625 26.171875 -6.90625 C 27.660156 -6.40625 29.171875 -6.15625 30.703125 -6.15625 C 32.359375 -6.15625 33.878906 -6.335938 35.265625 -6.703125 C 36.660156 -7.066406 37.9375 -7.546875 39.09375 -8.140625 C 40.25 -8.742188 41.289062 -9.390625 42.21875 -10.078125 C 43.144531 -10.773438 43.972656 -11.457031 44.703125 -12.125 C 45.367188 -12.78125 45.960938 -13.289062 46.484375 -13.65625 C 47.015625 -14.019531 47.644531 -14.203125 48.375 -14.203125 C 49.90625 -14.203125 50.671875 -13.441406 50.671875 -11.921875 C 50.671875 -10.734375 50.039062 -9.375 48.78125 -7.84375 C 47.519531 -6.320312 45.828125 -4.914062 43.703125 -3.625 C 41.585938 -2.332031 39.15625 -1.238281 36.40625 -0.34375 C 33.65625 0.550781 30.757812 1 27.71875 1 C 24.144531 1 20.816406 0.40625 17.734375 -0.78125 C 14.648438 -1.976562 11.96875 -3.617188 9.6875 -5.703125 C 7.40625 -7.796875 5.617188 -10.28125 4.328125 -13.15625 C 3.035156 -16.039062 2.390625 -19.171875 2.390625 -22.546875 Z M 2.390625 -22.546875 "/></g></g></g></g></g><g transform="matrix(1, 0, 0, 1, 38, 179)"><g clip-path="url(#d81b43bc47)"><g fill="#000000" fill-opacity="1"><g transform="translate(1.741352, 74.891877)"><g><path d="M 21.859375 -72.71875 C 23.847656 -72.71875 24.84375 -71.789062 24.84375 -69.9375 C 24.84375 -68.875 24.59375 -68.144531 24.09375 -67.75 C 23.59375 -67.351562 23.023438 -67.003906 22.390625 -66.703125 C 21.765625 -66.410156 21.203125 -66.015625 20.703125 -65.515625 C 20.210938 -65.015625 19.96875 -64.140625 19.96875 -62.890625 C 19.96875 -60.765625 20.234375 -57.992188 20.765625 -54.578125 C 21.296875 -51.171875 22.039062 -47.28125 23 -42.90625 C 23.957031 -38.539062 25.128906 -33.757812 26.515625 -28.5625 C 27.910156 -23.363281 29.46875 -17.882812 31.1875 -12.125 L 31.390625 -12.125 C 32.785156 -15.832031 34.191406 -19.851562 35.609375 -24.1875 C 37.035156 -28.53125 38.296875 -32.785156 39.390625 -36.953125 C 40.484375 -41.128906 41.375 -45.003906 42.0625 -48.578125 C 42.757812 -52.148438 43.109375 -55.066406 43.109375 -57.328125 C 43.109375 -60.304688 42.8125 -62.40625 42.21875 -63.625 C 41.625 -64.851562 40.960938 -65.734375 40.234375 -66.265625 C 39.503906 -66.796875 38.84375 -67.242188 38.25 -67.609375 C 37.65625 -67.972656 37.359375 -68.816406 37.359375 -70.140625 C 37.359375 -70.734375 37.539062 -71.3125 37.90625 -71.875 C 38.269531 -72.4375 39.3125 -72.71875 41.03125 -72.71875 L 58.3125 -72.71875 C 60.632812 -72.71875 61.796875 -71.757812 61.796875 -69.84375 C 61.796875 -68.84375 61.53125 -68.160156 61 -67.796875 C 60.46875 -67.429688 59.867188 -67.082031 59.203125 -66.75 C 58.546875 -66.425781 57.953125 -65.984375 57.421875 -65.421875 C 56.890625 -64.859375 56.625 -63.847656 56.625 -62.390625 C 56.625 -60.265625 56.921875 -57.78125 57.515625 -54.9375 C 58.117188 -52.09375 58.882812 -49.0625 59.8125 -45.84375 C 60.738281 -42.632812 61.765625 -39.359375 62.890625 -36.015625 C 64.015625 -32.671875 65.085938 -29.488281 66.109375 -26.46875 C 67.140625 -23.457031 68.050781 -20.691406 68.84375 -18.171875 C 69.632812 -15.660156 70.195312 -13.644531 70.53125 -12.125 L 70.734375 -12.125 C 72.316406 -15.894531 73.882812 -20.113281 75.4375 -24.78125 C 77 -29.457031 78.410156 -34.078125 79.671875 -38.640625 C 80.929688 -43.210938 81.957031 -47.535156 82.75 -51.609375 C 83.550781 -55.679688 83.953125 -59.007812 83.953125 -61.59375 C 83.953125 -63.25 83.566406 -64.390625 82.796875 -65.015625 C 82.035156 -65.648438 81.175781 -66.148438 80.21875 -66.515625 C 79.257812 -66.878906 78.398438 -67.242188 77.640625 -67.609375 C 76.878906 -67.972656 76.5 -68.679688 76.5 -69.734375 C 76.5 -71.722656 77.425781 -72.71875 79.28125 -72.71875 L 93.390625 -72.71875 C 94.378906 -72.71875 95.203125 -72.519531 95.859375 -72.125 C 96.523438 -71.726562 96.859375 -71.03125 96.859375 -70.03125 C 96.859375 -69.039062 96.660156 -68.3125 96.265625 -67.84375 C 95.867188 -67.382812 95.40625 -66.972656 94.875 -66.609375 C 94.34375 -66.242188 93.828125 -65.84375 93.328125 -65.40625 C 92.835938 -64.976562 92.492188 -64.335938 92.296875 -63.484375 C 91.234375 -59.046875 90.21875 -54.523438 89.25 -49.921875 C 88.289062 -45.316406 87.195312 -40.5625 85.96875 -35.65625 C 84.75 -30.757812 83.28125 -25.660156 81.5625 -20.359375 C 79.84375 -15.066406 77.691406 -9.539062 75.109375 -3.78125 C 74.441406 -2.320312 73.507812 -1.0625 72.3125 0 C 71.125 1.0625 69.472656 1.59375 67.359375 1.59375 C 66.097656 1.59375 64.769531 1.3125 63.375 0.75 C 61.988281 0.1875 60.734375 -1.253906 59.609375 -3.578125 C 58.941406 -4.960938 58.109375 -6.765625 57.109375 -8.984375 C 56.117188 -11.203125 55.078125 -13.851562 53.984375 -16.9375 C 52.898438 -20.019531 51.789062 -23.5 50.65625 -27.375 C 49.53125 -31.25 48.503906 -35.503906 47.578125 -40.140625 L 47.390625 -40.140625 C 46.460938 -35.566406 45.535156 -31.585938 44.609375 -28.203125 C 43.679688 -24.828125 42.769531 -21.878906 41.875 -19.359375 C 40.976562 -16.847656 40.128906 -14.664062 39.328125 -12.8125 C 38.535156 -10.957031 37.8125 -9.269531 37.15625 -7.75 C 36.164062 -5.425781 35.269531 -3.632812 34.46875 -2.375 C 33.675781 -1.125 32.914062 -0.203125 32.1875 0.390625 C 31.457031 0.992188 30.710938 1.34375 29.953125 1.4375 C 29.191406 1.539062 28.28125 1.59375 27.21875 1.59375 C 25.5625 1.59375 24.253906 1.257812 23.296875 0.59375 C 22.335938 -0.0625 21.523438 -1.054688 20.859375 -2.390625 C 19.203125 -5.566406 17.546875 -9.570312 15.890625 -14.40625 C 14.234375 -19.238281 12.660156 -24.421875 11.171875 -29.953125 C 9.679688 -35.484375 8.304688 -41.144531 7.046875 -46.9375 C 5.796875 -52.726562 4.769531 -58.207031 3.96875 -63.375 C 3.84375 -64.101562 3.546875 -64.679688 3.078125 -65.109375 C 2.617188 -65.546875 2.125 -65.960938 1.59375 -66.359375 C 1.0625 -66.753906 0.578125 -67.21875 0.140625 -67.75 C -0.285156 -68.28125 -0.5 -69.007812 -0.5 -69.9375 C -0.5 -71 -0.21875 -71.726562 0.34375 -72.125 C 0.90625 -72.519531 1.75 -72.71875 2.875 -72.71875 Z M 21.859375 -72.71875 "/></g></g></g></g></g><g transform="matrix(1, 0, 0, 1, 18, 95)"><g clip-path="url(#8e8055ae8b)"><g fill="#000000" fill-opacity="1"><g transform="translate(0.968351, 74.764763)"><g><path d="M 25.921875 -72.71875 C 26.847656 -72.71875 27.660156 -72.285156 28.359375 -71.421875 C 29.054688 -70.566406 29.867188 -68.878906 30.796875 -66.359375 C 31.390625 -64.835938 32.164062 -62.984375 33.125 -60.796875 C 34.09375 -58.609375 35.203125 -55.988281 36.453125 -52.9375 C 37.710938 -49.894531 39.101562 -46.367188 40.625 -42.359375 C 42.15625 -38.359375 43.78125 -33.773438 45.5 -28.609375 L 61.203125 -66.46875 C 61.796875 -67.851562 62.253906 -68.957031 62.578125 -69.78125 C 62.910156 -70.613281 63.257812 -71.242188 63.625 -71.671875 C 63.988281 -72.109375 64.4375 -72.390625 64.96875 -72.515625 C 65.5 -72.648438 66.257812 -72.71875 67.25 -72.71875 L 83.15625 -72.71875 C 85.332031 -72.71875 86.421875 -71.625 86.421875 -69.4375 C 86.421875 -68.25 86.070312 -67.488281 85.375 -67.15625 C 84.6875 -66.820312 83.910156 -66.554688 83.046875 -66.359375 C 82.191406 -66.160156 81.414062 -65.8125 80.71875 -65.3125 C 80.019531 -64.820312 79.671875 -63.78125 79.671875 -62.1875 L 79.671875 -9.734375 C 79.671875 -8.546875 79.953125 -7.71875 80.515625 -7.25 C 81.078125 -6.789062 81.707031 -6.425781 82.40625 -6.15625 C 83.101562 -5.894531 83.75 -5.5625 84.34375 -5.15625 C 84.9375 -4.757812 85.234375 -4.035156 85.234375 -2.984375 C 85.234375 -0.992188 83.8125 0 80.96875 0 L 64.28125 0 C 61.425781 0 60 -0.992188 60 -2.984375 C 60 -4.035156 60.28125 -4.757812 60.84375 -5.15625 C 61.40625 -5.5625 62.035156 -5.894531 62.734375 -6.15625 C 63.429688 -6.425781 64.078125 -6.789062 64.671875 -7.25 C 65.265625 -7.71875 65.5625 -8.546875 65.5625 -9.734375 L 65.5625 -58.015625 L 65.375 -58.015625 C 62.988281 -51.785156 60.800781 -46.269531 58.8125 -41.46875 C 56.820312 -36.675781 55.046875 -32.488281 53.484375 -28.90625 C 51.929688 -25.332031 50.578125 -22.316406 49.421875 -19.859375 C 48.265625 -17.410156 47.351562 -15.425781 46.6875 -13.90625 C 46.03125 -12.582031 45.484375 -11.570312 45.046875 -10.875 C 44.617188 -10.175781 44.238281 -9.675781 43.90625 -9.375 C 43.570312 -9.082031 43.289062 -8.9375 43.0625 -8.9375 C 42.832031 -8.9375 42.585938 -8.9375 42.328125 -8.9375 C 42.253906 -8.9375 42.082031 -8.953125 41.8125 -8.984375 C 41.550781 -9.023438 41.207031 -9.207031 40.78125 -9.53125 C 40.351562 -9.863281 39.835938 -10.441406 39.234375 -11.265625 C 38.640625 -12.097656 37.945312 -13.3125 37.15625 -14.90625 C 36.6875 -15.957031 35.988281 -17.441406 35.0625 -19.359375 C 34.132812 -21.285156 33.109375 -23.488281 31.984375 -25.96875 C 30.859375 -28.457031 29.679688 -31.125 28.453125 -33.96875 C 27.234375 -36.820312 26.039062 -39.671875 24.875 -42.515625 C 23.71875 -45.367188 22.644531 -48.132812 21.65625 -50.8125 C 20.664062 -53.5 19.867188 -55.898438 19.265625 -58.015625 L 19.078125 -58.015625 L 18.078125 -10.4375 C 18.078125 -9.101562 18.457031 -8.171875 19.21875 -7.640625 C 19.976562 -7.117188 20.820312 -6.691406 21.75 -6.359375 C 22.675781 -6.023438 23.519531 -5.640625 24.28125 -5.203125 C 25.050781 -4.773438 25.4375 -3.96875 25.4375 -2.78125 C 25.4375 -1.65625 24.9375 -0.910156 23.9375 -0.546875 C 22.945312 -0.179688 21.957031 0 20.96875 0 L 5.171875 0 C 3.046875 0 1.984375 -1.023438 1.984375 -3.078125 C 1.984375 -4.140625 2.3125 -4.816406 2.96875 -5.109375 C 3.632812 -5.410156 4.378906 -5.726562 5.203125 -6.0625 C 6.035156 -6.394531 6.800781 -6.890625 7.5 -7.546875 C 8.195312 -8.210938 8.613281 -9.40625 8.75 -11.125 C 8.945312 -14.632812 9.359375 -20.726562 9.984375 -29.40625 C 10.609375 -38.082031 10.921875 -48.976562 10.921875 -62.09375 C 10.921875 -63.675781 10.523438 -64.71875 9.734375 -65.21875 C 8.941406 -65.71875 8.046875 -66.066406 7.046875 -66.265625 C 6.054688 -66.460938 5.160156 -66.722656 4.359375 -67.046875 C 3.566406 -67.378906 3.171875 -68.210938 3.171875 -69.546875 C 3.171875 -70.671875 3.519531 -71.476562 4.21875 -71.96875 C 4.914062 -72.46875 5.597656 -72.71875 6.265625 -72.71875 Z M 25.921875 -72.71875 "/></g></g></g><g fill="#000000" fill-opacity="1"><g transform="translate(84.215332, 74.764763)"><g><path d="M 17.6875 -47.484375 C 19.601562 -47.484375 20.5625 -46.625 20.5625 -44.90625 C 20.5625 -44.238281 20.378906 -43.753906 20.015625 -43.453125 C 19.648438 -43.160156 19.253906 -42.816406 18.828125 -42.421875 C 18.398438 -42.023438 18.003906 -41.476562 17.640625 -40.78125 C 17.273438 -40.082031 17.09375 -39.003906 17.09375 -37.546875 C 17.09375 -36.085938 17.207031 -34.363281 17.4375 -32.375 C 17.664062 -30.394531 18.023438 -28.296875 18.515625 -26.078125 C 19.015625 -23.859375 19.597656 -21.671875 20.265625 -19.515625 C 20.929688 -17.367188 21.707031 -15.429688 22.59375 -13.703125 C 23.488281 -11.984375 24.46875 -10.59375 25.53125 -9.53125 C 26.59375 -8.476562 27.753906 -7.953125 29.015625 -7.953125 C 30.066406 -7.953125 31.039062 -8.546875 31.9375 -9.734375 C 32.832031 -10.929688 33.644531 -12.457031 34.375 -14.3125 C 35.101562 -16.164062 35.734375 -18.25 36.265625 -20.5625 C 36.796875 -22.882812 37.238281 -25.132812 37.59375 -27.3125 C 37.957031 -29.5 38.238281 -31.519531 38.4375 -33.375 C 38.644531 -35.226562 38.75 -36.65625 38.75 -37.65625 C 38.75 -38.90625 38.445312 -39.863281 37.84375 -40.53125 C 37.25 -41.195312 36.601562 -41.757812 35.90625 -42.21875 C 35.21875 -42.6875 34.59375 -43.148438 34.03125 -43.609375 C 33.46875 -44.078125 33.1875 -44.707031 33.1875 -45.5 C 33.1875 -46.820312 33.847656 -47.484375 35.171875 -47.484375 L 48.484375 -47.484375 C 49.015625 -47.484375 49.578125 -47.332031 50.171875 -47.03125 C 50.765625 -46.738281 51.0625 -46.195312 51.0625 -45.40625 C 51.0625 -44.738281 50.828125 -44.171875 50.359375 -43.703125 C 49.898438 -43.242188 49.375 -42.71875 48.78125 -42.125 C 48.1875 -41.53125 47.625 -40.785156 47.09375 -39.890625 C 46.5625 -38.992188 46.226562 -37.75 46.09375 -36.15625 C 45.894531 -34.039062 45.445312 -31.191406 44.75 -27.609375 C 44.0625 -24.035156 43.085938 -20.175781 41.828125 -16.03125 C 40.566406 -11.894531 39.007812 -7.722656 37.15625 -3.515625 C 35.300781 0.679688 33.128906 4.484375 30.640625 7.890625 C 28.160156 11.304688 25.332031 14.085938 22.15625 16.234375 C 18.976562 18.390625 15.46875 19.46875 11.625 19.46875 C 10.832031 19.46875 9.921875 19.367188 8.890625 19.171875 C 7.859375 18.972656 6.894531 18.675781 6 18.28125 C 5.113281 17.882812 4.351562 17.351562 3.71875 16.6875 C 3.09375 16.03125 2.78125 15.238281 2.78125 14.3125 C 2.78125 12.71875 3.304688 11.519531 4.359375 10.71875 C 5.421875 9.925781 6.882812 9.53125 8.75 9.53125 C 10.132812 9.53125 11.4375 9.796875 12.65625 10.328125 C 13.882812 10.859375 15 11.125 16 11.125 C 16.925781 11.125 18 10.742188 19.21875 9.984375 C 20.445312 9.222656 21.691406 8.226562 22.953125 7 C 24.210938 5.78125 25.40625 4.375 26.53125 2.78125 C 27.65625 1.1875 28.546875 -0.4375 29.203125 -2.09375 C 27.878906 -1.625 26.96875 -1.351562 26.46875 -1.28125 C 25.976562 -1.21875 25.597656 -1.1875 25.328125 -1.1875 C 22.421875 -1.1875 19.875 -1.863281 17.6875 -3.21875 C 15.5 -4.582031 13.625 -6.375 12.0625 -8.59375 C 10.507812 -10.8125 9.21875 -13.328125 8.1875 -16.140625 C 7.164062 -18.953125 6.320312 -21.800781 5.65625 -24.6875 C 5 -27.570312 4.453125 -30.351562 4.015625 -33.03125 C 3.585938 -35.71875 3.242188 -38.050781 2.984375 -40.03125 C 2.847656 -40.894531 2.613281 -41.523438 2.28125 -41.921875 C 1.945312 -42.316406 1.597656 -42.628906 1.234375 -42.859375 C 0.878906 -43.097656 0.550781 -43.363281 0.25 -43.65625 C -0.0507812 -43.957031 -0.203125 -44.40625 -0.203125 -45 C -0.203125 -46.65625 0.757812 -47.484375 2.6875 -47.484375 Z M 17.6875 -47.484375 "/></g></g></g><g fill="#000000" fill-opacity="1"><g transform="translate(129.712882, 74.764763)"><g><path d="M 4.078125 -32.578125 C 4.078125 -35.359375 4.6875 -37.742188 5.90625 -39.734375 C 7.132812 -41.722656 8.722656 -43.363281 10.671875 -44.65625 C 12.628906 -45.945312 14.816406 -46.90625 17.234375 -47.53125 C 19.648438 -48.164062 22.082031 -48.484375 24.53125 -48.484375 C 26.851562 -48.484375 29.003906 -48.28125 30.984375 -47.875 C 32.972656 -47.476562 34.710938 -46.929688 36.203125 -46.234375 C 37.703125 -45.546875 38.878906 -44.753906 39.734375 -43.859375 C 40.597656 -42.960938 41.03125 -41.984375 41.03125 -40.921875 C 41.03125 -39.398438 40.992188 -38.207031 40.921875 -37.34375 C 40.859375 -36.488281 40.726562 -35.84375 40.53125 -35.40625 C 40.332031 -34.976562 40.097656 -34.710938 39.828125 -34.609375 C 39.566406 -34.515625 39.238281 -34.46875 38.84375 -34.46875 C 37.71875 -34.46875 36.804688 -34.878906 36.109375 -35.703125 C 35.410156 -36.535156 34.628906 -37.460938 33.765625 -38.484375 C 32.910156 -39.515625 31.800781 -40.441406 30.4375 -41.265625 C 29.082031 -42.097656 27.113281 -42.515625 24.53125 -42.515625 C 23.007812 -42.515625 21.734375 -42.316406 20.703125 -41.921875 C 19.679688 -41.523438 18.875 -40.992188 18.28125 -40.328125 C 17.6875 -39.671875 17.253906 -38.960938 16.984375 -38.203125 C 16.722656 -37.441406 16.59375 -36.695312 16.59375 -35.96875 C 16.59375 -34.375 17.253906 -33.175781 18.578125 -32.375 C 19.898438 -31.582031 21.554688 -30.90625 23.546875 -30.34375 C 25.535156 -29.78125 27.671875 -29.25 29.953125 -28.75 C 32.234375 -28.257812 34.367188 -27.550781 36.359375 -26.625 C 38.347656 -25.695312 40.003906 -24.40625 41.328125 -22.75 C 42.648438 -21.09375 43.3125 -18.875 43.3125 -16.09375 C 43.3125 -13.445312 42.78125 -11.0625 41.71875 -8.9375 C 40.664062 -6.820312 39.191406 -5.035156 37.296875 -3.578125 C 35.410156 -2.117188 33.125 -0.988281 30.4375 -0.1875 C 27.757812 0.601562 24.832031 1 21.65625 1 C 18.738281 1 16.101562 0.601562 13.75 -0.1875 C 11.40625 -0.988281 9.390625 -1.96875 7.703125 -3.125 C 6.015625 -4.289062 4.707031 -5.46875 3.78125 -6.65625 C 2.851562 -7.84375 2.390625 -8.835938 2.390625 -9.640625 C 2.390625 -10.765625 2.71875 -11.890625 3.375 -13.015625 C 4.039062 -14.140625 5.035156 -14.703125 6.359375 -14.703125 C 7.222656 -14.703125 7.953125 -14.453125 8.546875 -13.953125 C 9.140625 -13.460938 9.703125 -12.867188 10.234375 -12.171875 C 10.765625 -11.472656 11.3125 -10.691406 11.875 -9.828125 C 12.4375 -8.972656 13.128906 -8.195312 13.953125 -7.5 C 14.785156 -6.800781 15.78125 -6.203125 16.9375 -5.703125 C 18.09375 -5.210938 19.535156 -4.96875 21.265625 -4.96875 C 23.847656 -4.96875 26.015625 -5.628906 27.765625 -6.953125 C 29.523438 -8.273438 30.40625 -9.960938 30.40625 -12.015625 C 30.40625 -13.804688 29.757812 -15.148438 28.46875 -16.046875 C 27.175781 -16.941406 25.550781 -17.671875 23.59375 -18.234375 C 21.632812 -18.796875 19.515625 -19.304688 17.234375 -19.765625 C 14.953125 -20.234375 12.832031 -20.910156 10.875 -21.796875 C 8.925781 -22.691406 7.304688 -23.96875 6.015625 -25.625 C 4.722656 -27.28125 4.078125 -29.597656 4.078125 -32.578125 Z M 4.078125 -32.578125 "/></g></g></g><g fill="#000000" fill-opacity="1"><g transform="translate(169.250008, 74.764763)"><g><path d="M 0.296875 -44.3125 C 0.296875 -45.769531 0.859375 -46.628906 1.984375 -46.890625 C 3.109375 -47.148438 4.398438 -47.347656 5.859375 -47.484375 C 7.710938 -47.617188 9.203125 -48.132812 10.328125 -49.03125 C 11.453125 -49.925781 12.363281 -51.015625 13.0625 -52.296875 C 13.757812 -53.585938 14.289062 -54.960938 14.65625 -56.421875 C 15.019531 -57.878906 15.363281 -59.21875 15.6875 -60.4375 C 16.019531 -61.664062 16.382812 -62.691406 16.78125 -63.515625 C 17.1875 -64.347656 17.753906 -64.765625 18.484375 -64.765625 C 19.273438 -64.765625 19.898438 -64.550781 20.359375 -64.125 C 20.828125 -63.695312 21.0625 -62.722656 21.0625 -61.203125 L 21.0625 -47.484375 L 29.40625 -47.484375 C 31.789062 -47.484375 32.984375 -46.425781 32.984375 -44.3125 C 32.984375 -42.1875 31.789062 -41.125 29.40625 -41.125 L 21.0625 -41.125 L 21.0625 -12.015625 C 21.0625 -10.296875 21.375 -9.035156 22 -8.234375 C 22.632812 -7.441406 23.394531 -6.914062 24.28125 -6.65625 C 25.175781 -6.394531 26.171875 -6.28125 27.265625 -6.3125 C 28.359375 -6.34375 29.351562 -6.320312 30.25 -6.25 C 31.144531 -6.1875 31.90625 -5.972656 32.53125 -5.609375 C 33.164062 -5.242188 33.484375 -4.535156 33.484375 -3.484375 C 33.484375 -1.160156 32.390625 0 30.203125 0 L 15.390625 0 C 12.546875 0 10.625 -0.394531 9.625 -1.1875 C 8.632812 -1.988281 8.140625 -3.613281 8.140625 -6.0625 L 8.140625 -41.125 C 5.429688 -40.988281 3.445312 -41.035156 2.1875 -41.265625 C 0.925781 -41.503906 0.296875 -42.519531 0.296875 -44.3125 Z M 0.296875 -44.3125 "/></g></g></g><g fill="#000000" fill-opacity="1"><g transform="translate(197.859671, 74.764763)"><g><path d="M 2.28125 -42.328125 C 2.28125 -42.984375 2.492188 -43.457031 2.921875 -43.75 C 3.359375 -44.050781 4.007812 -44.367188 4.875 -44.703125 C 5.925781 -45.097656 7.066406 -45.507812 8.296875 -45.9375 C 9.523438 -46.375 10.703125 -46.773438 11.828125 -47.140625 C 12.953125 -47.503906 13.957031 -47.816406 14.84375 -48.078125 C 15.738281 -48.347656 16.453125 -48.484375 16.984375 -48.484375 C 18.304688 -48.484375 19.234375 -48.019531 19.765625 -47.09375 C 20.296875 -46.164062 20.5625 -44.34375 20.5625 -41.625 L 20.5625 -9.53125 C 20.5625 -8.007812 20.804688 -6.96875 21.296875 -6.40625 C 21.796875 -5.84375 22.328125 -5.425781 22.890625 -5.15625 C 23.460938 -4.894531 23.992188 -4.628906 24.484375 -4.359375 C 24.984375 -4.097656 25.234375 -3.503906 25.234375 -2.578125 C 25.234375 -0.859375 24.070312 0 21.75 0 L 6.453125 0 C 4.140625 0 2.984375 -0.859375 2.984375 -2.578125 C 2.984375 -3.441406 3.226562 -4.019531 3.71875 -4.3125 C 4.21875 -4.613281 4.75 -4.894531 5.3125 -5.15625 C 5.875 -5.425781 6.40625 -5.84375 6.90625 -6.40625 C 7.40625 -6.96875 7.65625 -8.007812 7.65625 -9.53125 L 7.65625 -35.765625 C 7.65625 -36.890625 7.367188 -37.734375 6.796875 -38.296875 C 6.234375 -38.859375 5.617188 -39.304688 4.953125 -39.640625 C 4.296875 -39.972656 3.6875 -40.320312 3.125 -40.6875 C 2.5625 -41.050781 2.28125 -41.597656 2.28125 -42.328125 Z M 4.765625 -60 C 4.765625 -62.125 5.507812 -63.8125 7 -65.0625 C 8.488281 -66.320312 10.492188 -66.953125 13.015625 -66.953125 C 15.328125 -66.953125 17.210938 -66.320312 18.671875 -65.0625 C 20.128906 -63.8125 20.859375 -62.125 20.859375 -60 C 20.859375 -57.8125 20.113281 -56.101562 18.625 -54.875 C 17.132812 -53.65625 15.128906 -53.046875 12.609375 -53.046875 C 10.296875 -53.046875 8.410156 -53.675781 6.953125 -54.9375 C 5.492188 -56.195312 4.765625 -57.882812 4.765625 -60 Z M 4.765625 -60 "/></g></g></g><g fill="#000000" fill-opacity="1"><g transform="translate(219.515479, 74.764763)"><g><path d="M 2.390625 -23.046875 C 2.390625 -26.753906 3.050781 -30.164062 4.375 -33.28125 C 5.695312 -36.394531 7.5 -39.078125 9.78125 -41.328125 C 12.070312 -43.578125 14.789062 -45.332031 17.9375 -46.59375 C 21.082031 -47.851562 24.507812 -48.484375 28.21875 -48.484375 C 30.53125 -48.484375 32.796875 -48.203125 35.015625 -47.640625 C 37.234375 -47.078125 39.203125 -46.332031 40.921875 -45.40625 C 42.648438 -44.476562 44.023438 -43.382812 45.046875 -42.125 C 46.078125 -40.863281 46.59375 -39.535156 46.59375 -38.140625 C 46.59375 -36.691406 46.03125 -35.535156 44.90625 -34.671875 C 43.78125 -33.804688 42.253906 -33.375 40.328125 -33.375 C 38.867188 -33.375 37.757812 -33.882812 37 -34.90625 C 36.238281 -35.9375 35.507812 -37.046875 34.8125 -38.234375 C 34.125 -39.429688 33.28125 -40.539062 32.28125 -41.5625 C 31.289062 -42.59375 29.800781 -43.109375 27.8125 -43.109375 C 26.09375 -43.109375 24.519531 -42.628906 23.09375 -41.671875 C 21.675781 -40.710938 20.4375 -39.335938 19.375 -37.546875 C 18.3125 -35.765625 17.5 -33.644531 16.9375 -31.1875 C 16.375 -28.738281 16.09375 -26.023438 16.09375 -23.046875 C 16.09375 -20.398438 16.472656 -18.03125 17.234375 -15.9375 C 17.992188 -13.851562 19.003906 -12.082031 20.265625 -10.625 C 21.523438 -9.164062 22.984375 -8.054688 24.640625 -7.296875 C 26.296875 -6.535156 28.050781 -6.15625 29.90625 -6.15625 C 32.289062 -6.15625 34.273438 -6.550781 35.859375 -7.34375 C 37.453125 -8.144531 38.8125 -9.023438 39.9375 -9.984375 C 41.0625 -10.941406 42.035156 -11.816406 42.859375 -12.609375 C 43.691406 -13.410156 44.539062 -13.8125 45.40625 -13.8125 C 46.0625 -13.8125 46.640625 -13.59375 47.140625 -13.15625 C 47.640625 -12.726562 47.890625 -12.148438 47.890625 -11.421875 C 47.890625 -10.359375 47.359375 -9.113281 46.296875 -7.6875 C 45.234375 -6.269531 43.773438 -4.914062 41.921875 -3.625 C 40.066406 -2.332031 37.863281 -1.238281 35.3125 -0.34375 C 32.757812 0.550781 29.992188 1 27.015625 1 C 23.503906 1 20.242188 0.421875 17.234375 -0.734375 C 14.222656 -1.898438 11.625 -3.539062 9.4375 -5.65625 C 7.25 -7.78125 5.523438 -10.316406 4.265625 -13.265625 C 3.015625 -16.210938 2.390625 -19.472656 2.390625 -23.046875 Z M 2.390625 -23.046875 "/></g></g></g></g></g><g transform="matrix(1, 0, 0, 1, 131, 247)"><g clip-path="url(#481c5b5450)"><g clip-path="url(#e0cfb2b145)"><g fill="#000000" fill-opacity="1"><g transform="translate(0.300458, 10.968805)"><g><path d="M 0.65625 -0.640625 L 0.890625 -2.703125 C 1.273438 -2.441406 1.648438 -2.253906 2.015625 -2.140625 C 2.390625 -2.023438 2.726562 -1.957031 3.03125 -1.9375 C 3.34375 -1.914062 3.570312 -1.910156 3.71875 -1.921875 C 4.007812 -1.941406 4.257812 -2.046875 4.46875 -2.234375 C 4.675781 -2.421875 4.765625 -2.648438 4.734375 -2.921875 C 4.710938 -3.203125 4.601562 -3.414062 4.40625 -3.5625 C 4.21875 -3.707031 3.988281 -3.828125 3.71875 -3.921875 C 3.195312 -4.117188 2.710938 -4.34375 2.265625 -4.59375 C 1.828125 -4.84375 1.46875 -5.15625 1.1875 -5.53125 C 0.914062 -5.914062 0.78125 -6.382812 0.78125 -6.9375 C 0.78125 -7.488281 0.894531 -7.988281 1.125 -8.4375 C 1.363281 -8.882812 1.695312 -9.238281 2.125 -9.5 C 2.550781 -9.769531 3.035156 -9.914062 3.578125 -9.9375 C 3.835938 -9.957031 4.148438 -9.945312 4.515625 -9.90625 C 4.890625 -9.875 5.394531 -9.75 6.03125 -9.53125 L 5.78125 -7.625 C 5.238281 -7.84375 4.804688 -7.96875 4.484375 -8 C 4.160156 -8.03125 3.921875 -8.039062 3.765625 -8.03125 C 3.421875 -8.019531 3.164062 -7.898438 3 -7.671875 C 2.84375 -7.453125 2.773438 -7.207031 2.796875 -6.9375 C 2.816406 -6.65625 2.929688 -6.441406 3.140625 -6.296875 C 3.359375 -6.160156 3.609375 -6.039062 3.890625 -5.9375 C 4.410156 -5.75 4.882812 -5.519531 5.3125 -5.25 C 5.75 -4.976562 6.097656 -4.648438 6.359375 -4.265625 C 6.617188 -3.890625 6.75 -3.441406 6.75 -2.921875 C 6.75 -2.367188 6.628906 -1.875 6.390625 -1.4375 C 6.148438 -1 5.804688 -0.644531 5.359375 -0.375 C 4.921875 -0.101562 4.390625 0.046875 3.765625 0.078125 C 3.585938 0.0859375 3.335938 0.0820312 3.015625 0.0625 C 2.703125 0.0390625 2.34375 -0.0195312 1.9375 -0.125 C 1.53125 -0.238281 1.101562 -0.410156 0.65625 -0.640625 Z M 0.65625 -0.640625 "/></g></g></g></g><g fill="#000000" fill-opacity="1"><g transform="translate(8.647264, 10.968805)"><g><path d="M 6.21875 0 L 1.109375 0 L 1.109375 -9.875 L 6.046875 -9.875 L 6.046875 -7.90625 L 3.078125 -7.90625 L 3.078125 -5.921875 L 5.671875 -5.921875 L 5.671875 -3.953125 L 3.078125 -3.953125 L 3.078125 -1.96875 L 6.21875 -1.96875 Z M 6.21875 0 "/></g></g></g><g fill="#000000" fill-opacity="1"><g transform="translate(16.649204, 10.968805)"><g><path d="M 1.109375 -9.875 L 3.078125 -9.875 L 3.078125 -1.96875 L 6.21875 -1.96875 L 6.21875 0 L 1.109375 0 Z M 1.109375 -9.875 "/></g></g></g><g fill="#000000" fill-opacity="1"><g transform="translate(24.499388, 10.968805)"><g><path d="M 6.21875 0 L 1.109375 0 L 1.109375 -9.875 L 6.046875 -9.875 L 6.046875 -7.90625 L 3.078125 -7.90625 L 3.078125 -5.921875 L 5.671875 -5.921875 L 5.671875 -3.953125 L 3.078125 -3.953125 L 3.078125 -1.96875 L 6.21875 -1.96875 Z M 6.21875 0 "/></g></g></g><g clip-path="url(#1dad8f35ea)"><g fill="#000000" fill-opacity="1"><g transform="translate(32.501329, 10.968805)"><g><path d="M 7.390625 -7.578125 C 7.203125 -7.679688 6.976562 -7.78125 6.71875 -7.875 C 6.457031 -7.96875 6.109375 -8.015625 5.671875 -8.015625 C 5.109375 -8.015625 4.628906 -7.90625 4.234375 -7.6875 C 3.835938 -7.46875 3.519531 -7.175781 3.28125 -6.8125 C 3.039062 -6.457031 2.878906 -6.066406 2.796875 -5.640625 C 2.710938 -5.210938 2.710938 -4.785156 2.796875 -4.359375 C 2.878906 -3.929688 3.039062 -3.535156 3.28125 -3.171875 C 3.519531 -2.816406 3.835938 -2.53125 4.234375 -2.3125 C 4.628906 -2.09375 5.109375 -1.984375 5.671875 -1.984375 C 6.109375 -1.984375 6.488281 -2.035156 6.8125 -2.140625 C 7.144531 -2.242188 7.398438 -2.34375 7.578125 -2.4375 L 7.84375 -0.390625 C 7.539062 -0.265625 7.191406 -0.160156 6.796875 -0.078125 C 6.398438 -0.00390625 6.023438 0.03125 5.671875 0.03125 C 4.835938 0.03125 4.109375 -0.109375 3.484375 -0.390625 C 2.859375 -0.671875 2.332031 -1.050781 1.90625 -1.53125 C 1.488281 -2.007812 1.175781 -2.546875 0.96875 -3.140625 C 0.757812 -3.734375 0.65625 -4.347656 0.65625 -4.984375 C 0.65625 -5.617188 0.757812 -6.234375 0.96875 -6.828125 C 1.175781 -7.421875 1.488281 -7.957031 1.90625 -8.4375 C 2.332031 -8.914062 2.859375 -9.296875 3.484375 -9.578125 C 4.109375 -9.859375 4.835938 -10 5.671875 -10 C 6.390625 -10 7.039062 -9.867188 7.625 -9.609375 Z M 7.390625 -7.578125 "/></g></g></g></g><g fill="#000000" fill-opacity="1"><g transform="translate(41.85517, 10.968805)"><g><path d="M 4.703125 0 L 2.734375 0 L 2.734375 -7.90625 L 0.28125 -7.90625 L 0.28125 -9.859375 L 7.171875 -9.859375 L 7.171875 -7.90625 L 4.703125 -7.90625 Z M 4.703125 0 "/></g></g></g><g fill="#000000" fill-opacity="1"><g transform="translate(50.450292, 10.968805)"><g><path d="M 6.21875 0 L 1.109375 0 L 1.109375 -9.875 L 6.046875 -9.875 L 6.046875 -7.90625 L 3.078125 -7.90625 L 3.078125 -5.921875 L 5.671875 -5.921875 L 5.671875 -3.953125 L 3.078125 -3.953125 L 3.078125 -1.96875 L 6.21875 -1.96875 Z M 6.21875 0 "/></g></g></g><g fill="#000000" fill-opacity="1"><g transform="translate(58.452232, 10.968805)"><g><path d="M 4.046875 -9.875 C 4.867188 -9.875 5.585938 -9.734375 6.203125 -9.453125 C 6.816406 -9.179688 7.328125 -8.8125 7.734375 -8.34375 C 8.148438 -7.875 8.460938 -7.34375 8.671875 -6.75 C 8.878906 -6.164062 8.984375 -5.5625 8.984375 -4.9375 C 8.984375 -4.3125 8.878906 -3.703125 8.671875 -3.109375 C 8.460938 -2.523438 8.148438 -2 7.734375 -1.53125 C 7.328125 -1.0625 6.816406 -0.6875 6.203125 -0.40625 C 5.585938 -0.132812 4.867188 0 4.046875 0 L 1.109375 0 L 1.109375 -9.875 Z M 4.046875 -7.90625 L 3.078125 -7.90625 L 3.078125 -1.96875 L 4.046875 -1.96875 C 4.597656 -1.96875 5.066406 -2.070312 5.453125 -2.28125 C 5.847656 -2.5 6.160156 -2.785156 6.390625 -3.140625 C 6.628906 -3.492188 6.785156 -3.878906 6.859375 -4.296875 C 6.941406 -4.722656 6.941406 -5.144531 6.859375 -5.5625 C 6.785156 -5.988281 6.628906 -6.378906 6.390625 -6.734375 C 6.160156 -7.085938 5.847656 -7.367188 5.453125 -7.578125 C 5.066406 -7.796875 4.597656 -7.90625 4.046875 -7.90625 Z M 4.046875 -7.90625 "/></g></g></g><g fill="#000000" fill-opacity="1"><g transform="translate(69.213157, 10.968805)"><g/></g></g><g fill="#000000" fill-opacity="1"><g transform="translate(74.180198, 10.968805)"><g><path d="M 4.125 0.203125 L 0.078125 -9.875 L 2.3125 -9.875 L 4.296875 -4.828125 L 6.234375 -9.78125 L 6.328125 -9.78125 L 8.265625 -4.828125 L 10.25 -9.875 L 12.46875 -9.875 L 8.4375 0.171875 L 8.078125 0.171875 L 6.265625 -4.21875 L 4.46875 0.203125 Z M 4.125 0.203125 "/></g></g></g><g fill="#000000" fill-opacity="1"><g transform="translate(87.782887, 10.968805)"><g><path d="M 3.078125 0 L 1.109375 0 L 1.109375 -9.875 L 3.078125 -9.875 Z M 3.078125 0 "/></g></g></g><g fill="#000000" fill-opacity="1"><g transform="translate(93.025831, 10.968805)"><g><path d="M 4.703125 0 L 2.734375 0 L 2.734375 -7.90625 L 0.28125 -7.90625 L 0.28125 -9.859375 L 7.171875 -9.859375 L 7.171875 -7.90625 L 4.703125 -7.90625 Z M 4.703125 0 "/></g></g></g><g fill="#000000" fill-opacity="1"><g transform="translate(101.620953, 10.968805)"><g><path d="M 8.015625 0 L 6.03125 0 L 6.03125 -3.953125 L 3.078125 -3.953125 L 3.078125 0 L 1.109375 0 L 1.109375 -9.875 L 3.078125 -9.875 L 3.078125 -5.921875 L 6.03125 -5.921875 L 6.03125 -9.875 L 8.015625 -9.875 Z M 8.015625 0 "/></g></g></g><g fill="#000000" fill-opacity="1"><g transform="translate(111.788696, 10.968805)"><g/></g></g><g fill="#000000" fill-opacity="1"><g transform="translate(116.755737, 10.968805)"><g><path d="M 3.078125 0 L 1.109375 0 L 1.109375 -9.875 L 3.078125 -9.875 Z M 3.078125 0 "/></g></g></g><g clip-path="url(#9c7f999580)"><g fill="#000000" fill-opacity="1"><g transform="translate(121.99868, 10.968805)"><g><path d="M 3.078125 -5.375 L 3.078125 0 L 1.109375 0 L 1.109375 -10.078125 L 1.625 -10.078125 L 6.609375 -4.28125 L 6.609375 -9.859375 L 8.609375 -9.859375 L 8.609375 0.203125 L 8.078125 0.203125 Z M 3.078125 -5.375 "/></g></g></g></g><g fill="#000000" fill-opacity="1"><g transform="translate(132.759605, 10.968805)"><g><path d="M 4.703125 0 L 2.734375 0 L 2.734375 -7.90625 L 0.28125 -7.90625 L 0.28125 -9.859375 L 7.171875 -9.859375 L 7.171875 -7.90625 L 4.703125 -7.90625 Z M 4.703125 0 "/></g></g></g><g fill="#000000" fill-opacity="1"><g transform="translate(141.354727, 10.968805)"><g><path d="M 6.21875 0 L 1.109375 0 L 1.109375 -9.875 L 6.046875 -9.875 L 6.046875 -7.90625 L 3.078125 -7.90625 L 3.078125 -5.921875 L 5.671875 -5.921875 L 5.671875 -3.953125 L 3.078125 -3.953125 L 3.078125 -1.96875 L 6.21875 -1.96875 Z M 6.21875 0 "/></g></g></g><g clip-path="url(#34ee757c78)"><g fill="#000000" fill-opacity="1"><g transform="translate(149.356667, 10.968805)"><g><path d="M 3.078125 -5.375 L 3.078125 0 L 1.109375 0 L 1.109375 -10.078125 L 1.625 -10.078125 L 6.609375 -4.28125 L 6.609375 -9.859375 L 8.609375 -9.859375 L 8.609375 0.203125 L 8.078125 0.203125 Z M 3.078125 -5.375 "/></g></g></g></g><g fill="#000000" fill-opacity="1"><g transform="translate(160.117592, 10.968805)"><g><path d="M 4.703125 0 L 2.734375 0 L 2.734375 -7.90625 L 0.28125 -7.90625 L 0.28125 -9.859375 L 7.171875 -9.859375 L 7.171875 -7.90625 L 4.703125 -7.90625 Z M 4.703125 0 "/></g></g></g><g fill="#000000" fill-opacity="1"><g transform="translate(168.712715, 10.968805)"><g><path d="M 3.078125 0 L 1.109375 0 L 1.109375 -9.875 L 3.078125 -9.875 Z M 3.078125 0 "/></g></g></g><g clip-path="url(#f21305cb3a)"><g fill="#000000" fill-opacity="1"><g transform="translate(173.955658, 10.968805)"><g><path d="M 5.859375 0.140625 C 5.003906 0.140625 4.257812 0 3.625 -0.28125 C 2.988281 -0.570312 2.457031 -0.957031 2.03125 -1.4375 C 1.601562 -1.925781 1.285156 -2.472656 1.078125 -3.078125 C 0.867188 -3.679688 0.765625 -4.300781 0.765625 -4.9375 C 0.765625 -5.582031 0.867188 -6.207031 1.078125 -6.8125 C 1.285156 -7.425781 1.601562 -7.972656 2.03125 -8.453125 C 2.457031 -8.941406 2.988281 -9.328125 3.625 -9.609375 C 4.257812 -9.898438 5.003906 -10.046875 5.859375 -10.046875 C 6.703125 -10.046875 7.441406 -9.898438 8.078125 -9.609375 C 8.722656 -9.328125 9.253906 -8.941406 9.671875 -8.453125 C 10.097656 -7.972656 10.414062 -7.425781 10.625 -6.8125 C 10.84375 -6.207031 10.953125 -5.582031 10.953125 -4.9375 C 10.953125 -4.300781 10.84375 -3.679688 10.625 -3.078125 C 10.414062 -2.472656 10.097656 -1.925781 9.671875 -1.4375 C 9.253906 -0.957031 8.722656 -0.570312 8.078125 -0.28125 C 7.441406 0 6.703125 0.140625 5.859375 0.140625 Z M 5.859375 -1.90625 C 6.421875 -1.90625 6.90625 -2.015625 7.3125 -2.234375 C 7.71875 -2.453125 8.039062 -2.742188 8.28125 -3.109375 C 8.519531 -3.472656 8.675781 -3.867188 8.75 -4.296875 C 8.832031 -4.734375 8.832031 -5.164062 8.75 -5.59375 C 8.675781 -6.03125 8.519531 -6.429688 8.28125 -6.796875 C 8.039062 -7.160156 7.71875 -7.453125 7.3125 -7.671875 C 6.90625 -7.898438 6.421875 -8.015625 5.859375 -8.015625 C 5.296875 -8.015625 4.8125 -7.898438 4.40625 -7.671875 C 4 -7.453125 3.675781 -7.160156 3.4375 -6.796875 C 3.195312 -6.429688 3.035156 -6.03125 2.953125 -5.59375 C 2.867188 -5.164062 2.867188 -4.734375 2.953125 -4.296875 C 3.035156 -3.867188 3.195312 -3.472656 3.4375 -3.109375 C 3.675781 -2.742188 4 -2.453125 4.40625 -2.234375 C 4.8125 -2.015625 5.296875 -1.90625 5.859375 -1.90625 Z M 5.859375 -1.90625 "/></g></g></g></g><g clip-path="url(#6d2bc03a70)"><g fill="#000000" fill-opacity="1"><g transform="translate(186.689263, 10.968805)"><g><path d="M 3.078125 -5.375 L 3.078125 0 L 1.109375 0 L 1.109375 -10.078125 L 1.625 -10.078125 L 6.609375 -4.28125 L 6.609375 -9.859375 L 8.609375 -9.859375 L 8.609375 0.203125 L 8.078125 0.203125 Z M 3.078125 -5.375 "/></g></g></g></g></g></g></svg>